<svg width="190" height="217" viewBox="0 0 190 217" fill="none" xmlns="http://www.w3.org/2000/svg">
<path d="M37.5317 212.208C39.1477 212.208 40.4757 211.616 41.2597 210.832V205.728H37.2437V207.248H39.5797V210.016C39.1637 210.384 38.4437 210.592 37.7237 210.592C35.2917 210.592 33.9957 208.88 33.9957 206.08C33.9957 203.312 35.4517 201.616 37.6437 201.616C38.7797 201.616 39.4997 202.08 40.0917 202.672L41.0837 201.488C40.3637 200.736 39.2437 200 37.5797 200C34.4597 200 32.0917 202.304 32.0917 206.144C32.0917 210 34.3957 212.208 37.5317 212.208ZM47.3104 212.208C49.4864 212.208 51.4544 210.528 51.4544 207.6C51.4544 204.672 49.4864 202.976 47.3104 202.976C45.1344 202.976 43.1664 204.672 43.1664 207.6C43.1664 210.528 45.1344 212.208 47.3104 212.208ZM47.3104 210.704C45.9344 210.704 45.0704 209.472 45.0704 207.6C45.0704 205.744 45.9344 204.496 47.3104 204.496C48.7024 204.496 49.5664 205.744 49.5664 207.6C49.5664 209.472 48.7024 210.704 47.3104 210.704ZM57.1386 212.208C59.3146 212.208 61.2826 210.528 61.2826 207.6C61.2826 204.672 59.3146 202.976 57.1386 202.976C54.9626 202.976 52.9946 204.672 52.9946 207.6C52.9946 210.528 54.9626 212.208 57.1386 212.208ZM57.1386 210.704C55.7626 210.704 54.8986 209.472 54.8986 207.6C54.8986 205.744 55.7626 204.496 57.1386 204.496C58.5306 204.496 59.3946 205.744 59.3946 207.6C59.3946 209.472 58.5306 210.704 57.1386 210.704ZM66.4547 215.952C69.2707 215.952 71.0627 214.576 71.0627 212.88C71.0627 211.376 69.9747 210.736 67.8947 210.736H66.2787C65.1587 210.736 64.8067 210.4 64.8067 209.872C64.8067 209.44 64.9987 209.2 65.2867 208.944C65.6707 209.12 66.1187 209.216 66.5187 209.216C68.3587 209.216 69.8147 208.112 69.8147 206.192C69.8147 205.52 69.5747 204.928 69.2387 204.576H70.9187V203.2H67.7987C67.4627 203.072 67.0147 202.976 66.5187 202.976C64.6947 202.976 63.1107 204.144 63.1107 206.128C63.1107 207.184 63.6707 208.016 64.2787 208.48V208.544C63.7827 208.896 63.2867 209.488 63.2867 210.176C63.2867 210.896 63.6387 211.36 64.0867 211.632V211.712C63.2707 212.208 62.8067 212.896 62.8067 213.632C62.8067 215.168 64.3427 215.952 66.4547 215.952ZM66.5187 208.032C65.6067 208.032 64.8547 207.312 64.8547 206.128C64.8547 204.944 65.5907 204.272 66.5187 204.272C67.4467 204.272 68.1827 204.96 68.1827 206.128C68.1827 207.312 67.4307 208.032 66.5187 208.032ZM66.7267 214.736C65.2707 214.736 64.3747 214.224 64.3747 213.36C64.3747 212.912 64.5987 212.464 65.1267 212.08C65.4947 212.16 65.8947 212.208 66.3107 212.208H67.6387C68.7107 212.208 69.2867 212.432 69.2867 213.168C69.2867 213.984 68.2627 214.736 66.7267 214.736ZM74.5207 212.208C74.9847 212.208 75.2887 212.144 75.5127 212.064L75.2727 210.672C75.1127 210.704 75.0487 210.704 74.9687 210.704C74.7447 210.704 74.5367 210.528 74.5367 210.032V199.248H72.6967V209.936C72.6967 211.36 73.1927 212.208 74.5207 212.208ZM81.1263 212.208C82.2783 212.208 83.2863 211.824 84.1023 211.28L83.4623 210.112C82.8223 210.528 82.1503 210.768 81.3663 210.768C79.8463 210.768 78.7903 209.76 78.6463 208.08H84.3583C84.4063 207.856 84.4543 207.504 84.4543 207.136C84.4543 204.656 83.1903 202.976 80.8543 202.976C78.8063 202.976 76.8383 204.752 76.8383 207.6C76.8383 210.512 78.7423 212.208 81.1263 212.208ZM78.6303 206.8C78.8063 205.264 79.7823 204.416 80.8863 204.416C82.1663 204.416 82.8543 205.296 82.8543 206.8H78.6303ZM92.5189 205.6C92.9029 204.32 93.2709 203.024 93.6069 201.68H93.6869C94.0389 203.008 94.3909 204.32 94.7909 205.6L95.2549 207.184H92.0389L92.5189 205.6ZM88.7109 212H90.5989L91.6069 208.64H95.7029L96.6949 212H98.6629L94.7589 200.208H92.6149L88.7109 212ZM102.815 212.208C104.991 212.208 106.159 211.008 106.159 209.536C106.159 207.872 104.799 207.328 103.567 206.864C102.607 206.512 101.743 206.224 101.743 205.472C101.743 204.864 102.191 204.384 103.167 204.384C103.887 204.384 104.511 204.704 105.119 205.152L105.983 204.016C105.279 203.456 104.303 202.976 103.135 202.976C101.183 202.976 99.9991 204.08 99.9991 205.552C99.9991 207.04 101.295 207.664 102.479 208.112C103.423 208.48 104.415 208.832 104.415 209.632C104.415 210.304 103.919 210.816 102.863 210.816C101.919 210.816 101.151 210.416 100.367 209.808L99.5031 210.992C100.367 211.696 101.599 212.208 102.815 212.208ZM110.503 212.208C112.679 212.208 113.847 211.008 113.847 209.536C113.847 207.872 112.487 207.328 111.255 206.864C110.295 206.512 109.431 206.224 109.431 205.472C109.431 204.864 109.879 204.384 110.855 204.384C111.575 204.384 112.199 204.704 112.807 205.152L113.671 204.016C112.967 203.456 111.991 202.976 110.823 202.976C108.871 202.976 107.687 204.08 107.687 205.552C107.687 207.04 108.983 207.664 110.167 208.112C111.111 208.48 112.103 208.832 112.103 209.632C112.103 210.304 111.607 210.816 110.551 210.816C109.607 210.816 108.839 210.416 108.055 209.808L107.191 210.992C108.055 211.696 109.287 212.208 110.503 212.208ZM115.806 212H117.646V203.2H115.806V212ZM116.718 201.552C117.39 201.552 117.87 201.12 117.87 200.448C117.87 199.792 117.39 199.36 116.718 199.36C116.046 199.36 115.582 199.792 115.582 200.448C115.582 201.12 116.046 201.552 116.718 201.552ZM122.784 212.208C124.96 212.208 126.128 211.008 126.128 209.536C126.128 207.872 124.768 207.328 123.536 206.864C122.576 206.512 121.712 206.224 121.712 205.472C121.712 204.864 122.16 204.384 123.136 204.384C123.856 204.384 124.48 204.704 125.088 205.152L125.952 204.016C125.248 203.456 124.272 202.976 123.104 202.976C121.152 202.976 119.968 204.08 119.968 205.552C119.968 207.04 121.264 207.664 122.448 208.112C123.392 208.48 124.384 208.832 124.384 209.632C124.384 210.304 123.888 210.816 122.832 210.816C121.888 210.816 121.12 210.416 120.336 209.808L119.472 210.992C120.336 211.696 121.568 212.208 122.784 212.208ZM130.688 212.208C131.328 212.208 131.92 212.048 132.416 211.888L132.08 210.528C131.824 210.64 131.44 210.736 131.136 210.736C130.224 210.736 129.856 210.192 129.856 209.136V204.672H132.144V203.2H129.856V200.768H128.32L128.112 203.2L126.736 203.296V204.672H128.016V209.12C128.016 210.976 128.704 212.208 130.688 212.208ZM135.761 212.208C136.817 212.208 137.761 211.68 138.561 210.992H138.625L138.769 212H140.273V206.704C140.273 204.368 139.265 202.976 137.073 202.976C135.665 202.976 134.433 203.552 133.521 204.128L134.209 205.376C134.961 204.896 135.825 204.48 136.753 204.48C138.049 204.48 138.417 205.376 138.433 206.4C134.769 206.8 133.169 207.776 133.169 209.664C133.169 211.216 134.241 212.208 135.761 212.208ZM136.321 210.752C135.537 210.752 134.945 210.4 134.945 209.536C134.945 208.544 135.825 207.872 138.433 207.568V209.728C137.713 210.384 137.089 210.752 136.321 210.752ZM142.884 212H144.724V205.76C145.492 204.976 146.052 204.56 146.868 204.56C147.908 204.56 148.356 205.168 148.356 206.688V212H150.196V206.464C150.196 204.224 149.364 202.976 147.492 202.976C146.292 202.976 145.396 203.632 144.58 204.416H144.532L144.388 203.2H142.884V212ZM155.829 212.208C156.469 212.208 157.061 212.048 157.557 211.888L157.221 210.528C156.965 210.64 156.581 210.736 156.277 210.736C155.365 210.736 154.997 210.192 154.997 209.136V204.672H157.285V203.2H154.997V200.768H153.461L153.253 203.2L151.877 203.296V204.672H153.157V209.12C153.157 210.976 153.845 212.208 155.829 212.208Z" fill="#70757A"/>
<rect width="190" height="190" rx="27" fill="white"/>
<circle cx="122" cy="91" r="17" fill="#E74343"/>
<circle cx="67" cy="72" r="33" fill="#0080FF"/>
<circle cx="123" cy="130" r="20" fill="#FFBB3D"/>
<circle cx="147.5" cy="69.5" r="8.5" fill="#2CB450"/>
</svg>
