<svg xmlns="http://www.w3.org/2000/svg" xmlns:xlink="http://www.w3.org/1999/xlink" width="114" height="114" viewBox="0 0 114 114">
  <defs>
    <style>
      .cls-1 {
        fill: #d9ecff;
      }

      .cls-2 {
        clip-path: url(#clip-path);
      }

      .cls-3 {
        fill: #cee6ff;
      }

      .cls-4 {
        fill: #2cb450;
      }

      .cls-5 {
        fill: #151515;
      }

      .cls-11, .cls-13, .cls-14, .cls-16, .cls-6, .cls-7, .cls-8, .cls-9 {
        fill: none;
      }

      .cls-6 {
        stroke: #151515;
      }

      .cls-13, .cls-6, .cls-8 {
        stroke-linecap: round;
      }

      .cls-16, .cls-6 {
        stroke-width: 2px;
      }

      .cls-7, .cls-8 {
        stroke: #2cb450;
      }

      .cls-11, .cls-13, .cls-7, .cls-8, .cls-9 {
        stroke-width: 3px;
      }

      .cls-9 {
        stroke: #fec116;
      }

      .cls-10 {
        fill: #fec116;
      }

      .cls-11, .cls-13 {
        stroke: #ea4335;
      }

      .cls-12 {
        fill: #ea4335;
      }

      .cls-15 {
        fill: #ffd73d;
      }

      .cls-16 {
        stroke: #fff;
      }

      .cls-17 {
        fill: #fff;
      }

      .cls-18 {
        filter: url(#패스_61);
      }
    </style>
    <clipPath id="clip-path">
      <circle id="타원_144" data-name="타원 144" class="cls-1" cx="57" cy="57" r="57" transform="translate(5383 6157)"/>
    </clipPath>
    <filter id="패스_61" x="43" y="20" width="28" height="34" filterUnits="userSpaceOnUse">
      <feOffset dy="2" input="SourceAlpha"/>
      <feGaussianBlur stdDeviation="1" result="blur"/>
      <feFlood flood-opacity="0.259"/>
      <feComposite operator="in" in2="blur"/>
      <feComposite in="SourceGraphic"/>
    </filter>
  </defs>
  <g id="live-work" transform="translate(-5156 -6157)">
    <circle id="타원_142" data-name="타원 142" class="cls-1" cx="57" cy="57" r="57" transform="translate(5156 6157)"/>
    <g id="마스크_그룹_21" data-name="마스크 그룹 21" class="cls-2" transform="translate(-227)">
      <g id="그룹_2219" data-name="그룹 2219" transform="translate(-2 2)">
        <g id="그룹_2147" data-name="그룹 2147" transform="translate(5449.723 6205.343)">
          <ellipse id="타원_121" data-name="타원 121" class="cls-3" cx="18.096" cy="5.254" rx="18.096" ry="5.254" transform="translate(2.489 84.286)"/>
          <g id="그룹_2145" data-name="그룹 2145" transform="matrix(0.998, 0.07, -0.07, 0.998, 6.386, 0)">
            <rect id="사각형_2440" data-name="사각형 2440" class="cls-4" width="32.241" height="56.422" rx="4" transform="translate(12.9 0) rotate(7)"/>
            <g id="그룹_2144" data-name="그룹 2144" transform="translate(22.022 6.045)">
              <g id="그룹_2140" data-name="그룹 2140" transform="translate(0.943 0)">
                <ellipse id="타원_119" data-name="타원 119" class="cls-5" cx="1.504" cy="1.504" rx="1.504" ry="1.504" transform="translate(0 0)"/>
                <ellipse id="타원_120" data-name="타원 120" class="cls-5" cx="1.504" cy="1.504" rx="1.504" ry="1.504" transform="translate(7.821 0.601)"/>
              </g>
              <path id="패스_2214" data-name="패스 2214" class="cls-6" d="M0,0C7.863,2.107,12.716.817,12.716.817" transform="translate(0 5.166)"/>
            </g>
            <g id="그룹_2142" data-name="그룹 2142" transform="translate(3.691 52.056)">
              <line id="선_283" data-name="선 283" class="cls-7" x1="6.527" y2="35.158" transform="translate(8.166 0)"/>
              <path id="패스_2213" data-name="패스 2213" class="cls-4" d="M9.3,5.033s-3-7.549-8.119-4.155S9.3,5.033,9.3,5.033Z" transform="translate(0.7 29.178) rotate(8)"/>
            </g>
            <g id="그룹_2143" data-name="그룹 2143" transform="translate(14.676 56.086)">
              <line id="선_283-2" data-name="선 283" class="cls-7" x1="6.527" y2="35.158" transform="translate(8.166 0)"/>
              <path id="패스_2213-2" data-name="패스 2213" class="cls-4" d="M9.3,5.033s-3-7.549-8.119-4.155S9.3,5.033,9.3,5.033Z" transform="translate(0.7 29.178) rotate(8)"/>
            </g>
            <path id="패스_2216" data-name="패스 2216" class="cls-8" d="M9.549,13.021S7.379,4.63,0,0" transform="matrix(0.978, -0.208, 0.208, 0.978, 0, 13.8)"/>
            <path id="패스_2217" data-name="패스 2217" class="cls-8" d="M9.549,13.021S7.379,4.63,0,0" transform="matrix(0.978, -0.208, 0.208, 0.978, 0, 23.875)"/>
          </g>
        </g>
        <g id="그룹_2146" data-name="그룹 2146" transform="translate(5373.965 6209.718)">
          <ellipse id="타원_123" data-name="타원 123" class="cls-3" cx="23.24" cy="6.338" rx="23.24" ry="6.338" transform="translate(15.651 83.092) rotate(-7)"/>
          <g id="그룹_2139" data-name="그룹 2139" transform="translate(0 0)">
            <g id="그룹_2138" data-name="그룹 2138" transform="translate(42.186 50.283)">
              <line id="선_280" data-name="선 280" class="cls-9" x2="3.38" y2="33.804"/>
              <path id="패스_2208" data-name="패스 2208" class="cls-10" d="M8508.546,5663.435s4.978-9.86,11.415-5.59S8508.546,5663.435,8508.546,5663.435Z" transform="translate(-8506.395 -5629.5)"/>
            </g>
            <g id="그룹_2137" data-name="그룹 2137" transform="translate(14.14 54.086)">
              <line id="선_279" data-name="선 279" class="cls-9" x1="3.38" y2="33.804" transform="translate(12.834)"/>
              <path id="패스_2209" data-name="패스 2209" class="cls-10" d="M12.47,6.478S7.862-3.181,1.424,1.09,12.47,6.478,12.47,6.478Z" transform="matrix(0.899, -0.438, 0.438, 0.899, 0, 33.541)"/>
            </g>
            <g id="그룹_2136" data-name="그룹 2136" transform="translate(0)">
              <g id="그룹_2131" data-name="그룹 2131">
                <g id="그룹_2130" data-name="그룹 2130" transform="matrix(0.978, 0.208, -0.208, 0.978, 21.953, 0)">
                  <path id="패스_2205" data-name="패스 2205" class="cls-10" d="M3.1,0C5.472,0,6.655,3.318,6.039,6.425A14.735,14.735,0,0,1,3.1,12.239,15.362,15.362,0,0,1,.154,6.425C-.441,3.421.721,0,3.1,0Z" transform="matrix(0.891, -0.454, 0.454, 0.891, 3.667, 2.815)"/>
                  <path id="패스_2206" data-name="패스 2206" class="cls-10" d="M3.1,0C5.472,0,6.655,3.318,6.039,6.425A14.735,14.735,0,0,1,3.1,12.239,15.362,15.362,0,0,1,.154,6.425C-.441,3.421.721,0,3.1,0Z" transform="translate(15.749 0.018) rotate(31)"/>
                  <path id="패스_2207" data-name="패스 2207" class="cls-10" d="M3.1,12.239c2.375,0,3.558-3.318,2.942-6.425A14.735,14.735,0,0,0,3.1,0,15.362,15.362,0,0,0,.154,5.813C-.441,8.818.721,12.239,3.1,12.239Z" transform="matrix(-0.105, 0.995, -0.995, -0.105, 12.82, 9.423)"/>
                </g>
                <path id="다각형_42" data-name="다각형 42" class="cls-10" d="M29.023,2.548a2,2,0,0,1,3.344,0l26.99,41.128a2,2,0,0,1-1.672,3.1H3.7a2,2,0,0,1-1.672-3.1Z" transform="matrix(0.985, -0.174, 0.174, 0.985, 0, 13.076)"/>
              </g>
              <ellipse id="타원_116" data-name="타원 116" class="cls-5" cx="1.626" cy="1.626" rx="1.626" ry="1.626" transform="translate(26.972 21.908)"/>
              <ellipse id="타원_117" data-name="타원 117" class="cls-5" cx="1.626" cy="1.626" rx="1.626" ry="1.626" transform="translate(34.514 20.282)"/>
              <path id="패스_2215" data-name="패스 2215" class="cls-5" d="M1.988,1.2c.619-1.341,1.375-1.909,2.423.169l2.21,3.605a.632.632,0,0,1-.557.93H.632a.632.632,0,0,1-.557-.93Z" transform="matrix(-0.998, 0.07, -0.07, -0.998, 37.766, 31.052)"/>
            </g>
          </g>
        </g>
        <g id="그룹_2148" data-name="그룹 2148" transform="translate(5412.895 6226.056)">
          <ellipse id="타원_122" data-name="타원 122" class="cls-3" cx="20.738" cy="6.021" rx="20.738" ry="6.021" transform="translate(16.751 71.091)"/>
          <g id="그룹_2135" data-name="그룹 2135" transform="translate(0 0)">
            <g id="그룹_2132" data-name="그룹 2132" transform="translate(43.989 46.185)">
              <line id="선_283-3" data-name="선 283" class="cls-11" x2="3.079" y2="30.79"/>
              <path id="패스_2213-3" data-name="패스 2213" class="cls-12" d="M8508.547,5662.841s4.533-8.982,10.4-5.092S8508.547,5662.841,8508.547,5662.841Z" transform="translate(-8506.587 -5631.931)"/>
            </g>
            <circle id="타원_118" data-name="타원 118" class="cls-12" cx="24.632" cy="24.632" r="24.632" transform="translate(11.408)"/>
            <g id="그룹_2134" data-name="그룹 2134" transform="translate(26.033 6.928)">
              <ellipse id="타원_119-2" data-name="타원 119" class="cls-5" cx="1.924" cy="1.924" rx="1.924" ry="1.924"/>
              <ellipse id="타원_120-2" data-name="타원 120" class="cls-5" cx="1.924" cy="1.924" rx="1.924" ry="1.924" transform="translate(10.007 0.77)"/>
              <line id="선_281" data-name="선 281" class="cls-6" y1="2.309" x2="11.546" transform="translate(3.464 6.543)"/>
              <line id="선_282" data-name="선 282" class="cls-6" x2="0.77" y2="3.079" transform="translate(15.01 5.003)"/>
            </g>
            <path id="패스_2211" data-name="패스 2211" class="cls-13" d="M8662.038,5601.64s2.488-9.616,10.944-14.922" transform="translate(-8604.416 -5573.08)"/>
            <path id="패스_2212" data-name="패스 2212" class="cls-13" d="M10.943,14.922S8.456,5.306,0,0" transform="matrix(0.978, -0.208, 0.208, 0.978, 0, 12.077)"/>
            <g id="그룹_2133" data-name="그룹 2133" transform="translate(15.864 45.987)">
              <line id="선_283-4" data-name="선 283" class="cls-11" x1="3.079" y2="30.79" transform="translate(10.555)"/>
              <path id="패스_2213-4" data-name="패스 2213" class="cls-12" d="M8520.22,5662.841s-4.533-8.982-10.4-5.092S8520.22,5662.841,8520.22,5662.841Z" transform="translate(-8508.547 -5631.931)"/>
            </g>
          </g>
        </g>
      </g>
    </g>
    <g id="그룹_2220" data-name="그룹 2220" transform="translate(-2577 8213)">
      <rect id="사각형_492" data-name="사각형 492" class="cls-14" width="30" height="30" transform="translate(7775 -2036)"/>
      <g id="그룹_506" data-name="그룹 506" transform="translate(7779 -2035)">
        <g id="그룹_505" data-name="그룹 505">
          <g class="cls-18" transform="matrix(1, 0, 0, 1, -46, -21)">
            <path id="패스_61-2" data-name="패스 61" class="cls-12" d="M19.942,28H2.059A2.059,2.059,0,0,1,0,25.942V2.058A2.059,2.059,0,0,1,2.059,0H19.942A2.058,2.058,0,0,1,22,2.058V25.942A2.058,2.058,0,0,1,19.942,28" transform="translate(46 21)"/>
          </g>
          <path id="패스_62" data-name="패스 62" class="cls-15" d="M14,8h8V1.981A1.981,1.981,0,0,0,20.019,0H14Z"/>
          <line id="선_204" data-name="선 204" class="cls-16" x2="10" transform="translate(4 14)"/>
          <line id="선_205" data-name="선 205" class="cls-16" x2="12" transform="translate(4 18)"/>
          <line id="선_206" data-name="선 206" class="cls-16" x2="12" transform="translate(4 22)"/>
          <path id="패스_65" data-name="패스 65" class="cls-17" d="M0,0,8,8H0Z" transform="translate(14)"/>
        </g>
      </g>
    </g>
  </g>
</svg>
