<svg xmlns="http://www.w3.org/2000/svg" width="114" height="114" viewBox="0 0 114 114">
  <defs>
    <style>
      .cls-1 {
        fill: #d9ecff;
      }

      .cls-2, .cls-5, .cls-8 {
        fill: none;
      }

      .cls-3 {
        fill: #fff29f;
      }

      .cls-4 {
        fill: #aaa270;
      }

      .cls-5 {
        stroke: #fff29f;
      }

      .cls-5, .cls-8 {
        stroke-width: 2px;
      }

      .cls-6 {
        fill: #2cb450;
      }

      .cls-7 {
        fill: #ea4335;
      }

      .cls-8 {
        stroke: #4b5259;
      }
    </style>
  </defs>
  <g id="memo" transform="translate(-5156 -5881)">
    <circle id="타원_143" data-name="타원 143" class="cls-1" cx="57" cy="57" r="57" transform="translate(5156 5881)"/>
    <g id="그룹_2216" data-name="그룹 2216">
      <g id="그룹_2215" data-name="그룹 2215" transform="translate(3299.856 5759)">
        <rect id="사각형_482" data-name="사각형 482" class="cls-2" width="58" height="58" transform="translate(1884.144 150)"/>
        <g id="구성_요소_2_50" data-name="구성 요소 2 – 50" transform="translate(1888.144 154)">
          <g id="구성_요소_1_1" data-name="구성 요소 1 – 1">
            <rect id="사각형_316" data-name="사각형 316" class="cls-3" width="50" height="50" rx="4"/>
            <path id="사각형_431" data-name="사각형 431" class="cls-4" d="M0,0H15a0,0,0,0,1,0,0V11a4,4,0,0,1-4,4H0a0,0,0,0,1,0,0V0A0,0,0,0,1,0,0Z" transform="translate(35 35)"/>
          </g>
          <line id="선_186" data-name="선 186" class="cls-5" x2="33" transform="translate(8 14)"/>
          <line id="선_187" data-name="선 187" class="cls-5" x2="25" transform="translate(8 25)"/>
          <line id="선_188" data-name="선 188" class="cls-5" x2="13" transform="translate(8 37)"/>
        </g>
      </g>
      <rect id="사각형_2464" data-name="사각형 2464" class="cls-6" width="8" height="8" transform="translate(5195 5922)"/>
      <rect id="사각형_2465" data-name="사각형 2465" class="cls-7" width="8" height="8" transform="translate(5195 5936)"/>
      <path id="패스_2243" data-name="패스 2243" class="cls-8" d="M5195.039,5924.232l3.035,3.047,5.965-6" transform="translate(0.961 0.721)"/>
      <line id="선_295" data-name="선 295" class="cls-8" x2="16" transform="translate(5208 5926)"/>
      <line id="선_296" data-name="선 296" class="cls-8" x2="16" transform="translate(5208 5940)"/>
    </g>
  </g>
</svg>
