<svg xmlns="http://www.w3.org/2000/svg" xmlns:xlink="http://www.w3.org/1999/xlink" width="480" height="301" viewBox="0 0 480 301">
  <defs>
    <style>
      .cls-1, .cls-2 {
        fill: #fff;
      }

      .cls-1 {
        stroke: #707070;
      }

      .cls-3 {
        fill: #09a232;
      }

      .cls-4 {
        fill: #fec116;
      }

      .cls-5 {
        fill: #ea4335;
      }

      .cls-6 {
        clip-path: url(#clip-path);
      }

      .cls-7 {
        clip-path: url(#clip-path-2);
      }

      .cls-8 {
        fill: #2cb450;
      }

      .cls-9 {
        fill: #151515;
      }

      .cls-10, .cls-12 {
        fill: none;
        stroke: #151515;
        stroke-linecap: round;
      }

      .cls-10 {
        stroke-width: 3px;
      }

      .cls-11 {
        fill: #2090ff;
      }

      .cls-12 {
        stroke-width: 2px;
      }
    </style>
    <clipPath id="clip-path">
      <rect id="사각형_2436" data-name="사각형 2436" class="cls-1" width="32" height="11" transform="translate(8474 5049)"/>
    </clipPath>
    <clipPath id="clip-path-2">
      <rect id="사각형_2437" data-name="사각형 2437" class="cls-2" width="480" height="190" rx="8" transform="translate(8330 5159)"/>
    </clipPath>
  </defs>
  <g id="그룹_2207" data-name="그룹 2207" transform="translate(-8330 -5049)">
    <path id="패스_2152" data-name="패스 2152" class="cls-3" d="M9076.8,5133.96c-5.461,10.921-23.3,14.925-23.3,14.925s7.671-20.035,7.645-20.386S9076.8,5133.96,9076.8,5133.96Z" transform="translate(-303.155 -53.485)"/>
    <path id="패스_2153" data-name="패스 2153" class="cls-4" d="M9053.506,5133.96c3.712,10.921,15.835,14.925,15.835,14.925s-5.214-20.035-5.2-20.386S9053.506,5133.96,9053.506,5133.96Z" transform="translate(-1884.765 3433.605) rotate(-20)"/>
    <path id="패스_2154" data-name="패스 2154" class="cls-5" d="M9071.316,5133.96c-4.175,10.921-17.811,14.925-17.811,14.925s5.864-20.035,5.845-20.386S9071.316,5133.96,9071.316,5133.96Z" transform="translate(2288.542 -2960.345) rotate(22)"/>
    <path id="패스_2165" data-name="패스 2165" class="cls-5" d="M9053.506,5133.96c4.41,10.921,18.813,14.925,18.813,14.925s-6.194-20.035-6.174-20.386S9053.506,5133.96,9053.506,5133.96Z" transform="translate(4370.838 14700.027) rotate(-97)"/>
    <g id="마스크_그룹_11" data-name="마스크 그룹 11" class="cls-6">
      <path id="패스_2166" data-name="패스 2166" class="cls-3" d="M9053.506,5133.96c4.439,10.921,18.944,14.925,18.944,14.925s-6.237-20.035-6.216-20.386S9053.506,5133.96,9053.506,5133.96Z" transform="translate(-829.751 391.677) rotate(-3)"/>
    </g>
    <g id="마스크_그룹_12" data-name="마스크 그룹 12" class="cls-7" transform="translate(0 1)">
      <g id="그룹_2113" data-name="그룹 2113">
        <g id="그룹_2112" data-name="그룹 2112">
          <path id="타원_89" data-name="타원 89" class="cls-8" d="M123.08,2.228a122.889,122.889,0,0,1,41.685,6.229,107.38,107.38,0,0,1,34.464,19.017,91.082,91.082,0,0,1,23.618,29.583,82.506,82.506,0,0,1,8.578,37.674,87.584,87.584,0,0,1-9.7,38.845,104.108,104.108,0,0,1-25.892,32.236,121.647,121.647,0,0,1-38.05,21.589,128.829,128.829,0,0,1-45.56,7.225,120.667,120.667,0,0,1-43.762-9.034,103.527,103.527,0,0,1-33.6-22.26A88.189,88.189,0,0,1,14.447,131.84,82.413,82.413,0,0,1,9.71,94.731a89.568,89.568,0,0,1,11.785-36.04A105.852,105.852,0,0,1,46.522,29.7,121.844,121.844,0,0,1,81.368,10.026,128.913,128.913,0,0,1,123.08,2.228Z" transform="translate(8646.64 5222.269)"/>
          <circle id="타원_97" data-name="타원 97" class="cls-9" cx="3.5" cy="3.5" r="3.5" transform="translate(8738 5236)"/>
          <circle id="타원_98" data-name="타원 98" class="cls-9" cx="3.5" cy="3.5" r="3.5" transform="translate(8762 5240)"/>
          <path id="패스_2171" data-name="패스 2171" class="cls-10" d="M8723,5245.518a45.449,45.449,0,0,0,31.88,15.294c20.464.861,23.694-10.34,23.694-10.34"/>
          <line id="선_277" data-name="선 277" class="cls-10" x2="8" y2="5" transform="translate(8775.5 5248.5)"/>
        </g>
        <g id="그룹_2111" data-name="그룹 2111">
          <g id="그룹_2114" data-name="그룹 2114" transform="translate(3839.89 -3367.337) rotate(29)">
            <path id="패스_2168" data-name="패스 2168" class="cls-11" d="M8.8-1c4.713,0,7.061,6.583,5.839,12.75S8.8,23.285,8.8,23.285,4.147,17.711,2.965,11.75,4.091-1,8.8-1Z" transform="matrix(0.891, -0.454, 0.454, 0.891, 8350.112, 5175.75)"/>
            <path id="패스_2169" data-name="패스 2169" class="cls-11" d="M8.8-1c4.713,0,7.061,6.583,5.839,12.75S8.8,23.285,8.8,23.285,4.147,17.711,2.965,11.75,4.091-1,8.8-1Z" transform="translate(8373.208 5167.588) rotate(31)"/>
            <path id="패스_2170" data-name="패스 2170" class="cls-11" d="M6.144,24.285c4.713,0,7.061-6.583,5.839-12.75S6.144,0,6.144,0,1.487,5.574.306,11.535,1.431,24.285,6.144,24.285Z" transform="matrix(-0.105, 0.995, -0.995, -0.105, 8370.189, 5186.764)"/>
          </g>
          <ellipse id="타원_91" data-name="타원 91" class="cls-11" cx="77" cy="77.5" rx="77" ry="77.5" transform="translate(8570 5226)"/>
          <circle id="타원_99" data-name="타원 99" class="cls-9" cx="3.5" cy="3.5" r="3.5" transform="matrix(0.985, -0.174, 0.174, 0.985, 8630.42, 5233.275)"/>
          <circle id="타원_100" data-name="타원 100" class="cls-9" cx="3.5" cy="3.5" r="3.5" transform="matrix(0.985, -0.174, 0.174, 0.985, 8648.75, 5231.161)"/>
          <path id="패스_2175" data-name="패스 2175" class="cls-12" d="M8626.61,5239.415a29.411,29.411,0,0,0,19.5,4.079c11.727-1.466,14.529-8.412,14.529-8.412" transform="translate(0 1.95)"/>
        </g>
        <g id="그룹_2110" data-name="그룹 2110">
          <ellipse id="타원_92" data-name="타원 92" class="cls-8" cx="61" cy="64" rx="61" ry="64" transform="translate(8474 5234)"/>
          <ellipse id="타원_101" data-name="타원 101" class="cls-9" cx="2.522" cy="2.91" rx="2.522" ry="2.91" transform="translate(8531.713 5235.253) rotate(11)"/>
          <ellipse id="타원_102" data-name="타원 102" class="cls-9" cx="2.522" cy="2.91" rx="2.522" ry="2.91" transform="translate(8545.457 5238.592) rotate(11)"/>
          <path id="패스_2176" data-name="패스 2176" class="cls-12" d="M8533.762,5245.69c11.706,3.137,18.932,1.216,18.932,1.216"/>
        </g>
        <g id="그룹_2109" data-name="그룹 2109">
          <ellipse id="타원_90" data-name="타원 90" class="cls-4" cx="67" cy="64" rx="67" ry="64" transform="translate(8490 5270)"/>
          <path id="패스_2174" data-name="패스 2174" class="cls-9" d="M4.277,0A3.992,3.992,0,0,1,8.46,3.921,4.222,4.222,0,0,1,4.182,7.937,3.992,3.992,0,0,1,0,4.016,4.222,4.222,0,0,1,4.277,0Z" transform="translate(8572.202 5284.389) rotate(-170)"/>
          <path id="패스_2173" data-name="패스 2173" class="cls-9" d="M4.277,0A3.992,3.992,0,0,1,8.46,3.921,4.222,4.222,0,0,1,4.182,7.937,3.992,3.992,0,0,1,0,4.016,4.222,4.222,0,0,1,4.277,0Z" transform="translate(8556.416 5286.842) rotate(-170)"/>
          <path id="패스_2172" data-name="패스 2172" class="cls-9" d="M3.816,3.7C4.8,1.572,5.993.673,7.652,3.964l3.5,5.709a1,1,0,0,1-.881,1.472H1.67A1,1,0,0,1,.789,9.672Z" transform="matrix(-0.998, 0.07, -0.07, -0.998, 8570.792, 5297.913)"/>
        </g>
        <g id="그룹_2108" data-name="그룹 2108">
          <ellipse id="타원_88" data-name="타원 88" class="cls-5" cx="126.5" cy="116" rx="126.5" ry="116" transform="translate(8279 5186)"/>
          <ellipse id="타원_93" data-name="타원 93" class="cls-9" cx="6.5" cy="7" rx="6.5" ry="7" transform="translate(8385.76 5210.725) rotate(11)"/>
          <ellipse id="타원_94" data-name="타원 94" class="cls-9" cx="6.5" cy="7" rx="6.5" ry="7" transform="matrix(-0.755, 0.656, -0.656, -0.755, 8427.303, 5205.855)"/>
          <path id="패스_2167" data-name="패스 2167" class="cls-10" d="M8374.12,5240.891s18.93,12.013,40.772,4.368,27.3-28.03,25.846-37.859" transform="translate(-2.039 -5.333)"/>
          <g id="그룹_2107" data-name="그룹 2107" transform="matrix(0.978, 0.208, -0.208, 0.978, 1257.067, -1624.11)">
            <path id="패스_2168-2" data-name="패스 2168" class="cls-5" d="M8.8-1c4.713,0,7.061,6.583,5.839,12.75S8.8,23.285,8.8,23.285,4.147,17.711,2.965,11.75,4.091-1,8.8-1Z" transform="matrix(0.891, -0.454, 0.454, 0.891, 8350.112, 5175.75)"/>
            <path id="패스_2169-2" data-name="패스 2169" class="cls-5" d="M8.8-1c4.713,0,7.061,6.583,5.839,12.75S8.8,23.285,8.8,23.285,4.147,17.711,2.965,11.75,4.091-1,8.8-1Z" transform="translate(8373.208 5167.588) rotate(31)"/>
            <path id="패스_2170-2" data-name="패스 2170" class="cls-5" d="M6.144,24.285c4.713,0,7.061-6.583,5.839-12.75S6.144,0,6.144,0,1.487,5.574.306,11.535,1.431,24.285,6.144,24.285Z" transform="matrix(-0.105, 0.995, -0.995, -0.105, 8370.189, 5186.764)"/>
          </g>
        </g>
      </g>
    </g>
  </g>
</svg>
