<svg xmlns="http://www.w3.org/2000/svg" xmlns:xlink="http://www.w3.org/1999/xlink" width="114" height="114" viewBox="0 0 114 114">
  <defs>
    <style>
      .cls-1 {
        fill: #d9ecff;
      }

      .cls-2, .cls-8 {
        fill: none;
      }

      .cls-3 {
        fill: #2cb450;
      }

      .cls-4, .cls-6 {
        fill: #fff;
      }

      .cls-4 {
        font-size: 22px;
        font-family: NotoSansKR-Medium, Noto Sans KR;
        font-weight: 500;
      }

      .cls-5 {
        fill: #0e7329;
      }

      .cls-7 {
        fill: #0080ff;
      }

      .cls-8 {
        stroke: #fff;
        stroke-width: 2px;
      }

      .cls-9 {
        filter: url(#사각형_316);
      }
    </style>
    <filter id="사각형_316" x="64" y="23" width="32" height="32" filterUnits="userSpaceOnUse">
      <feOffset dy="2" input="SourceAlpha"/>
      <feGaussianBlur stdDeviation="1" result="blur"/>
      <feFlood flood-opacity="0.259"/>
      <feComposite operator="in" in2="blur"/>
      <feComposite in="SourceGraphic"/>
    </filter>
  </defs>
  <g id="share-schedule" transform="translate(-5156 -6019)">
    <circle id="타원_140" data-name="타원 140" class="cls-1" cx="57" cy="57" r="57" transform="translate(5156 6019)"/>
    <g id="그룹_2217" data-name="그룹 2217" transform="translate(5170 6036)">
      <g id="그룹_508" data-name="그룹 508" transform="translate(14 11)">
        <rect id="사각형_435" data-name="사각형 435" class="cls-2" width="58" height="58"/>
        <g id="그룹_372" data-name="그룹 372" transform="translate(3.838 3.838)">
          <g id="그룹_359" data-name="그룹 359" transform="translate(0 11.514)">
            <path id="사각형_316-2" data-name="사각형 316" class="cls-3" d="M0,0H50a0,0,0,0,1,0,0V35a4,4,0,0,1-4,4H4a4,4,0,0,1-4-4V0A0,0,0,0,1,0,0Z" transform="translate(0.162 -0.352)"/>
            <text id="_31" data-name="31" class="cls-4" transform="translate(25.162 25.648)"><tspan x="-12.54" y="0">31</tspan></text>
          </g>
          <path id="사각형_316-3" data-name="사각형 316" class="cls-5" d="M4,0H46a4,4,0,0,1,4,4v7a0,0,0,0,1,0,0H0a0,0,0,0,1,0,0V4A4,4,0,0,1,4,0Z" transform="translate(0.162 0.162)"/>
          <rect id="사각형_510" data-name="사각형 510" class="cls-6" width="6" height="8" transform="translate(13.162 0.162)"/>
          <rect id="사각형_511" data-name="사각형 511" class="cls-6" width="5" height="8" transform="translate(31.162 0.162)"/>
        </g>
      </g>
    </g>
    <g id="그룹_2218" data-name="그룹 2218" transform="translate(3338 5819)">
      <rect id="사각형_435-2" data-name="사각형 435" class="cls-2" width="30" height="30" transform="translate(1883 222)"/>
      <g id="그룹_372-2" data-name="그룹 372">
        <g id="그룹_359-2" data-name="그룹 359" transform="translate(-5 102)">
          <g class="cls-9" transform="matrix(1, 0, 0, 1, 1823, 98)">
            <rect id="사각형_316-4" data-name="사각형 316" class="cls-7" width="26" height="26" rx="4" transform="translate(67 24)"/>
          </g>
        </g>
        <g id="그룹_360" data-name="그룹 360" transform="translate(0 -2)">
          <circle id="타원_74" data-name="타원 74" class="cls-6" cx="3" cy="3" r="3" transform="translate(1900 230)"/>
          <circle id="타원_76" data-name="타원 76" class="cls-6" cx="3" cy="3" r="3" transform="translate(1890 236)"/>
          <circle id="타원_75" data-name="타원 75" class="cls-6" cx="3" cy="3" r="3" transform="translate(1900 242)"/>
          <line id="선_184" data-name="선 184" class="cls-8" y1="4" x2="6" transform="translate(1895 234)"/>
          <line id="선_185" data-name="선 185" class="cls-8" x2="6" y2="4" transform="translate(1895 240)"/>
        </g>
      </g>
    </g>
  </g>
</svg>
