<svg xmlns="http://www.w3.org/2000/svg" xmlns:xlink="http://www.w3.org/1999/xlink" width="360" height="760" viewBox="0 0 360 760">
  <defs>
    <style>
      .cls-1 {
        clip-path: url(#clip-_09_2);
      }

      .cls-19, .cls-2 {
        fill: #222;
      }

      .cls-3 {
        fill: url(#pattern);
      }

      .cls-4 {
        fill: url(#pattern-2);
      }

      .cls-5 {
        fill: url(#pattern-3);
      }

      .cls-14, .cls-16, .cls-21, .cls-6, .cls-9 {
        fill: #fff;
      }

      .cls-19, .cls-6 {
        font-size: 16px;
      }

      .cls-14, .cls-18, .cls-19, .cls-21, .cls-6 {
        font-family: NotoSansKR-Medium, Noto Sans KR;
        font-weight: 500;
      }

      .cls-7 {
        fill: #cecece;
        font-family: NotoSansKR-Regular, Noto Sans KR;
      }

      .cls-18, .cls-21, .cls-7, .cls-9 {
        font-size: 13px;
      }

      .cls-8 {
        fill: url(#linear-gradient);
      }

      .cls-9 {
        font-family: NotoSansKR-Bold, Noto Sans KR;
        font-weight: 700;
      }

      .cls-10 {
        opacity: 0.7;
      }

      .cls-11 {
        fill: #151515;
      }

      .cls-12, .cls-13, .cls-15 {
        fill: none;
      }

      .cls-13, .cls-15 {
        stroke: #fff;
        stroke-width: 2px;
      }

      .cls-13, .cls-15, .cls-23, .cls-24, .cls-26, .cls-27 {
        stroke-linecap: round;
      }

      .cls-13, .cls-23, .cls-24, .cls-26, .cls-27 {
        stroke-linejoin: round;
      }

      .cls-14 {
        font-size: 20px;
      }

      .cls-17 {
        fill: url(#pattern-4);
      }

      .cls-18 {
        fill: #666;
      }

      .cls-20 {
        fill: #2b2b2b;
      }

      .cls-22 {
        fill: url(#pattern-5);
      }

      .cls-23 {
        fill: #5d65d9;
      }

      .cls-24 {
        fill: #9a9e60;
      }

      .cls-25 {
        fill: url(#pattern-6);
      }

      .cls-26 {
        fill: #b4b4b4;
      }

      .cls-27 {
        fill: #edeaff;
      }

      .cls-28 {
        fill: url(#pattern-8);
      }

      .cls-29, .cls-30 {
        stroke: none;
      }

      .cls-30 {
        fill: #fff;
      }

      .cls-31 {
        filter: url(#사각형_1585);
      }
    </style>
    <pattern id="pattern" preserveAspectRatio="xMidYMid slice" width="100%" height="100%" viewBox="0 0 4042 6063">
      <image width="4042" height="6063" xlink:href="09%20-%202-image.jpg"/>
    </pattern>
    <pattern id="pattern-2" preserveAspectRatio="xMidYMid slice" width="100%" height="100%" viewBox="0 0 6544 9504">
      <image width="6544" height="9504" xlink:href="09%20-%202-image2.jpg"/>
    </pattern>
    <pattern id="pattern-3" preserveAspectRatio="xMidYMid slice" width="100%" height="100%" viewBox="0 0 3720 5268">
      <image width="3720" height="5268" xlink:href="09%20-%202-image3.jpg"/>
    </pattern>
    <linearGradient id="linear-gradient" x1="0.5" y1="0.73" x2="0.5" y2="1" gradientUnits="objectBoundingBox">
      <stop offset="0" stop-opacity="0"/>
      <stop offset="1" stop-opacity="0.529"/>
    </linearGradient>
    <filter id="사각형_1585" x="-16" y="-12" width="396" height="96" filterUnits="userSpaceOnUse">
      <feOffset dx="2" dy="6" input="SourceAlpha"/>
      <feGaussianBlur stdDeviation="6" result="blur"/>
      <feFlood flood-opacity="0.161"/>
      <feComposite operator="in" in2="blur"/>
      <feComposite in="SourceGraphic"/>
    </filter>
    <pattern id="pattern-4" width="1" height="1" viewBox="7.195 17.447 65.61 65.61">
      <use preserveAspectRatio="xMidYMid slice" xlink:href="#image"/>
    </pattern>
    <image id="image" preserveAspectRatio="xMidYMid slice" width="80" height="120" xlink:href="09%20-%202-image.jpg"/>
    <pattern id="pattern-5" width="1" height="1" viewBox="7.195 17.447 65.61 65.61">
      <use xlink:href="#image"/>
    </pattern>
    <pattern id="pattern-6" preserveAspectRatio="xMidYMid slice" width="100%" height="100%" viewBox="0 0 3587 5379">
      <image width="3587" height="5379" xlink:href="09%20-%202-image4.jpg"/>
    </pattern>
    <pattern id="pattern-8" preserveAspectRatio="xMidYMid slice" width="100%" height="100%" viewBox="0 0 2160 2700">
      <image width="2160" height="2700" xlink:href="09%20-%202-image5.jpg"/>
    </pattern>
    <clipPath id="clip-_09_2">
      <rect width="360" height="760"/>
    </clipPath>
  </defs>
  <g id="_09_2" data-name="09 – 2" class="cls-1">
    <rect class="cls-16" width="360" height="760"/>
    <rect id="사각형_1" data-name="사각형 1" class="cls-2" width="360" height="1000"/>
    <g id="그룹_1851" data-name="그룹 1851" transform="translate(0 10)">
      <rect id="aiony-haust-K0DxxljcRv0-unsplash" class="cls-3" width="164" height="164" rx="8" transform="translate(98 80)"/>
      <rect id="hosein-shirvani-D4hSg_UDzGM-unsplash" class="cls-4" width="144" height="144" rx="8" transform="translate(278 90)"/>
      <rect id="alina-bordunova-HgN5CqM6qkQ-unsplash" class="cls-5" width="144" height="144" rx="8" transform="translate(-62 90)"/>
      <text id="나는_꿈을_꾸는_작가입니다" data-name="나는 꿈을 꾸는 작가입니다" class="cls-6" transform="translate(94 279)"><tspan x="0" y="0">나는 꿈을 꾸는 작가입니다</tspan></text>
      <text id="_현실주의_사실적인" data-name="#현실주의 #사실적인" class="cls-7" transform="translate(124 301)"><tspan x="0" y="0">#현실주의 #사실적인</tspan></text>
      <g id="그룹_1830" data-name="그룹 1830">
        <rect id="사각형_1589" data-name="사각형 1589" class="cls-8" width="164" height="164" rx="8" transform="translate(98 80)"/>
        <text id="김희정" class="cls-9" transform="translate(162 230)"><tspan x="0" y="0">김희정</tspan></text>
      </g>
      <rect id="hosein-shirvani-D4hSg_UDzGM-unsplash-2" data-name="hosein-shirvani-D4hSg_UDzGM-unsplash" class="cls-10" width="144" height="144" rx="8" transform="translate(278 90)"/>
      <rect id="alina-bordunova-HgN5CqM6qkQ-unsplash-2" data-name="alina-bordunova-HgN5CqM6qkQ-unsplash" class="cls-10" width="144" height="144" rx="8" transform="translate(-62 90)"/>
    </g>
    <g id="그룹_1829" data-name="그룹 1829">
      <g class="cls-31" transform="matrix(1, 0, 0, 1, 0, 0)">
        <rect id="사각형_1585-2" data-name="사각형 1585" class="cls-11" width="360" height="60"/>
      </g>
      <g id="그룹_1660" data-name="그룹 1660" transform="translate(-47 -3)">
        <g id="그룹_1" data-name="그룹 1" transform="translate(60 6)">
          <rect id="사각형_16" data-name="사각형 16" class="cls-12" width="20" height="20" transform="translate(10 17)"/>
          <path id="패스_1" data-name="패스 1" class="cls-13" d="M440,937l-10,10,10,10" transform="translate(-415 -920)"/>
        </g>
        <rect id="사각형_1511" data-name="사각형 1511" class="cls-12" width="46" height="46" transform="translate(57 10)"/>
        <rect id="사각형_1512" data-name="사각형 1512" class="cls-12" width="24" height="24" transform="translate(68 21)"/>
      </g>
      <text id="인싸_작가요_" data-name="인싸 작가요!" class="cls-6" transform="translate(83 18)"><tspan x="55.656" y="19">인싸 작가요!</tspan></text>
    </g>
    <g id="그룹_1854" data-name="그룹 1854" transform="translate(0 -18)">
      <text id="전체_인기_작가님_한_번에_체크" data-name="전체 인기 작가님 한 번에 체크" class="cls-7" transform="translate(10 427)"><tspan x="0" y="15">전체 인기 작가님 한 번에 체크</tspan></text>
      <text id="작가_전체보기" data-name="작가 전체보기" class="cls-14" transform="translate(10 393)"><tspan x="0" y="23">작가 전체보기</tspan></text>
      <g id="그룹_1700" data-name="그룹 1700" transform="translate(0 -499)">
        <g id="그룹_1681" data-name="그룹 1681" transform="translate(0 2)">
          <rect id="사각형_1513" data-name="사각형 1513" class="cls-12" width="46" height="46" transform="translate(304 897)"/>
          <g id="그룹_1680" data-name="그룹 1680" transform="translate(-2)">
            <rect id="사각형_1514" data-name="사각형 1514" class="cls-12" width="20" height="20" transform="translate(319 910)"/>
            <g id="그룹_1679" data-name="그룹 1679">
              <line id="선_120" data-name="선 120" class="cls-15" x2="14" transform="translate(323 920)"/>
              <line id="선_122" data-name="선 122" class="cls-15" x2="18" transform="translate(320 928)"/>
              <line id="선_121" data-name="선 121" class="cls-15" x2="18" transform="translate(320 912)"/>
              <circle id="타원_146" data-name="타원 146" class="cls-16" cx="2" cy="2" r="2" transform="translate(333 918)"/>
              <circle id="타원_147" data-name="타원 147" class="cls-16" cx="2" cy="2" r="2" transform="translate(321 910)"/>
              <circle id="타원_148" data-name="타원 148" class="cls-16" cx="2" cy="2" r="2" transform="translate(321 926)"/>
            </g>
          </g>
        </g>
      </g>
      <rect id="사각형_1583" data-name="사각형 1583" class="cls-16" width="340" height="120" rx="8" transform="translate(10 607)"/>
      <rect id="aiony-haust-K0DxxljcRv0-unsplash-2" data-name="aiony-haust-K0DxxljcRv0-unsplash" class="cls-17" width="80" height="80" rx="6" transform="translate(20 627)"/>
      <text id="구독자_8천명" data-name="구독자 8천명" class="cls-18" transform="translate(110 653)"><tspan x="0" y="15">구독자 8천명</tspan></text>
      <text id="릴리안_56" data-name="릴리안 56" class="cls-19" transform="translate(110 646)"><tspan x="0" y="0">릴리안 56</tspan></text>
      <g id="그룹_1823" data-name="그룹 1823" transform="translate(0 -475)">
        <rect id="사각형_1581" data-name="사각형 1581" class="cls-20" width="56" height="26" rx="13" transform="translate(212 1156)"/>
        <rect id="사각형_1582" data-name="사각형 1582" class="cls-20" width="56" height="26" rx="13" transform="translate(272 1156)"/>
        <text id="인물화" class="cls-21" transform="translate(222 1174)"><tspan x="0" y="0">인물화</tspan></text>
        <text id="재밌는" class="cls-21" transform="translate(282 1174)"><tspan x="0" y="0">재밌는</tspan></text>
      </g>
      <g id="그룹_1836" data-name="그룹 1836" transform="translate(0 -388)">
        <rect id="사각형_1515" data-name="사각형 1515" class="cls-16" width="340" height="120" rx="8" transform="translate(10 855)"/>
        <rect id="aiony-haust-K0DxxljcRv0-unsplash-3" data-name="aiony-haust-K0DxxljcRv0-unsplash" class="cls-22" width="80" height="80" rx="6" transform="translate(20 875)"/>
        <text id="구독자_1.7명" data-name="구독자 1.7명" class="cls-18" transform="translate(110 901)"><tspan x="0" y="15">구독자 1.7명</tspan></text>
        <text id="김희정-2" data-name="김희정" class="cls-19" transform="translate(110 894)"><tspan x="0" y="0">김희정</tspan></text>
        <g id="그룹_1822" data-name="그룹 1822" transform="translate(0 -227)">
          <rect id="사각형_1581-2" data-name="사각형 1581" class="cls-2" width="80" height="26" rx="13" transform="translate(188 1156)"/>
          <rect id="사각형_1582-2" data-name="사각형 1582" class="cls-2" width="68" height="26" rx="13" transform="translate(272 1156)"/>
          <text id="초현실주의" class="cls-21" transform="translate(198 1174)"><tspan x="0" y="0">초현실주의</tspan></text>
          <text id="원색적인" class="cls-21" transform="translate(282 1174)"><tspan x="0" y="0">원색적인</tspan></text>
        </g>
        <g id="그룹_1774" data-name="그룹 1774" transform="translate(-2057 1523)">
          <path id="패스_1918" data-name="패스 1918" class="cls-2" d="M20,0A20,20,0,1,1,0,20,20,20,0,0,1,20,0Z" transform="translate(2357 -648)"/>
          <g id="그룹_1382" data-name="그룹 1382" transform="translate(2369 -637.999)">
            <g id="그룹_1821" data-name="그룹 1821" transform="translate(0 0)">
              <g id="패스_1646" data-name="패스 1646" class="cls-23" transform="translate(-0.5 -0.5)">
                <path class="cls-29" d="M 12.17055034637451 21.4998893737793 L 11.17055034637451 21.4998893737793 L 0.5000001788139343 21.4998893737793 L -0.7382398247718811 21.4998893737793 L -0.4775898456573486 20.28939056396484 L 1.824950218200684 9.596019744873047 L 2.13874363899231 8.138699531555176 C 1.349510431289673 7.634972095489502 0.5630077719688416 6.615803241729736 0.60204017162323 4.798159599304199 C 0.6283701658248901 3.563119649887085 0.7649001479148865 2.499769687652588 0.9968901872634888 1.723209738731384 C 1.422510147094727 0.29849973320961 2.1528000831604 -0.0005602721939794719 2.690490245819092 -0.0005602721939794719 C 2.750960111618042 -0.0005602721939794719 2.812090158462524 0.003619727678596973 2.872210264205933 0.01185972802340984 C 3.238240242004395 0.06178972870111465 3.741870164871216 0.2869697213172913 4.058570384979248 1.075689673423767 C 4.188250064849854 1.398639678955078 4.280960083007812 1.782939672470093 4.379120349884033 2.189789772033691 C 4.436537265777588 2.427801609039307 4.497700691223145 2.681330919265747 4.568202018737793 2.926804065704346 C 4.900961875915527 2.074409484863281 5.260677814483643 1.34765350818634 5.620450019836426 0.8036797046661377 C 6.200700283050537 -0.07364027202129364 6.79541015625 -0.5001202821731567 7.438570022583008 -0.5001202821731567 C 7.647150039672852 -0.5001202821731567 7.847200393676758 -0.453490287065506 8.033149719238281 -0.3615202605724335 C 8.364040374755859 -0.198010265827179 8.769700050354004 0.1748697310686111 8.821650505065918 1.021909713745117 C 8.842960357666016 1.369419693946838 8.809869766235352 1.763409733772278 8.774849891662598 2.180539846420288 C 8.732860565185547 2.680549621582031 8.685270309448242 3.247279644012451 8.74159049987793 3.704139709472656 C 8.765409469604492 3.897019386291504 8.777692794799805 4.079985618591309 8.780817985534668 4.252796173095703 C 10.028639793396 4.077623844146729 11.19649600982666 3.9891197681427 12.26605987548828 3.9891197681427 C 13.89976978302002 3.9891197681427 15.31156063079834 4.198599815368652 16.46220016479492 4.611739635467529 C 16.97456932067871 4.795769691467285 17.32582092285156 5.166079521179199 17.45136070251465 5.654499530792236 C 17.76099967956543 6.85923957824707 16.6401195526123 8.198999404907227 14.279709815979 10.87493991851807 C 13.51296997070312 11.74417972564697 12.72012996673584 12.64301013946533 11.98764991760254 13.55696964263916 C 11.77288150787354 13.82463550567627 11.29384708404541 14.53103065490723 10.85629177093506 15.24555110931396 C 10.88925552368164 15.45265769958496 10.95903968811035 15.72360706329346 11.09883975982666 16.05697059631348 C 12.15837001800537 18.58646011352539 12.17055034637451 20.42294883728027 12.17055034637451 20.4998893737793 L 12.17055034637451 21.4998893737793 Z"/>
                <path class="cls-30" d="M 7.438570022583008 0.4998836517333984 C 6.898436546325684 0.4998836517333984 6.063648223876953 1.682485580444336 5.311450004577637 3.795629501342773 C 4.965459823608398 4.767650604248047 5.039830207824707 5.472109794616699 5.24314022064209 5.963799476623535 C 4.825210571289062 6.067339897155762 4.468310356140137 6.163159370422363 4.190629959106445 6.241119384765625 C 4.262180328369141 5.911019325256348 4.380599975585938 5.035629272460938 3.923870086669922 4.074169158935547 C 3.343460083007812 2.851629257202148 3.316780090332031 1.081760406494141 2.736370086669922 1.002590179443359 C 2.155956268310547 0.9229583740234375 1.654359817504883 2.354248046875 1.601810455322266 4.819629669189453 C 1.548870086669922 7.285009384155273 3.289700508117676 7.544049263000488 3.289700508117676 7.544049263000488 L 0.5 20.4998893737793 L 11.17055034637451 20.4998893737793 C 11.17055034637451 20.4998893737793 11.17055034637451 18.81650924682617 10.17665004730225 16.44369888305664 C 9.920390129089355 15.8326301574707 9.84076976776123 15.35311985015869 9.830659866333008 15.00961971282959 C 10.30478000640869 14.21218967437744 10.91510009765625 13.29578971862793 11.20733070373535 12.93158912658691 C 13.98854064941406 9.461299896240234 17.6989803314209 6.118499755859375 16.12426948547363 5.552909851074219 C 13.65790939331055 4.667367935180664 10.24737930297852 4.975129127502441 7.59712028503418 5.456679344177246 C 7.721610069274902 5.12090015411377 7.841660499572754 4.576009750366211 7.749099731445312 3.82649040222168 C 7.583379745483398 2.482139587402344 8.115699768066406 0.7947006225585938 7.589850425720215 0.5348491668701172 C 7.54257869720459 0.5114707946777344 7.491968154907227 0.4998836517333984 7.438570022583008 0.4998836517333984 M 9.228019714355469 16.15663909912109 C 9.309670448303223 15.93372917175293 9.504079818725586 15.56790924072266 9.743770599365234 15.15740966796875 L 9.228019714355469 16.15663909912109 M 7.438570022583008 -1.500120162963867 C 7.802300453186035 -1.500120162963867 8.151519775390625 -1.418609619140625 8.476530075073242 -1.25786018371582 C 8.941060066223145 -1.028310775756836 9.734210014343262 -0.4343795776367188 9.819769859313965 0.9606895446777344 C 9.84553050994873 1.380710601806641 9.809490203857422 1.809860229492188 9.771340370178223 2.264209747314453 C 9.747575759887695 2.547174453735352 9.721830368041992 2.85377311706543 9.716648101806641 3.130403518676758 C 10.61264228820801 3.03645133972168 11.46473789215088 2.989120483398438 12.26583003997803 2.989120483398438 C 14.01539039611816 2.989160537719727 15.54084968566895 3.218429565429688 16.80011940002441 3.670558929443359 C 17.62204933166504 3.965780258178711 18.21235084533691 4.598138809204102 18.41987991333008 5.405570030212402 C 18.87514114379883 7.176899909973145 17.42769050598145 8.817839622497559 15.02964973449707 11.53644943237305 C 14.27058982849121 12.39697933197021 13.48569011688232 13.28680992126465 12.76797008514404 14.18233966827393 C 12.6280460357666 14.35672855377197 12.29159736633301 14.84160232543945 11.92657852172852 15.4182767868042 C 11.95130157470703 15.49380111694336 11.98226928710938 15.57780265808105 12.02103042602539 15.6702299118042 C 13.1382999420166 18.33757019042969 13.17055034637451 20.28644943237305 13.17055034637451 20.4998893737793 C 13.17055034637451 21.60445976257324 12.27511978149414 22.4998893737793 11.17055034637451 22.4998893737793 L 0.5 22.4998893737793 C -0.1043300628662109 22.4998893737793 -0.6762599945068359 22.22662925720215 -1.055959701538086 21.7564697265625 C -1.435649871826172 21.28631973266602 -1.582399368286133 20.66967964172363 -1.455190658569336 20.07888984680176 L 1.029075622558594 8.54155158996582 C 0.2246360778808594 7.805902481079102 -0.4371013641357422 6.61016845703125 -0.3977298736572266 4.776689529418945 C -0.3691196441650391 3.434410095214844 -0.2222690582275391 2.310659408569336 0.03873062133789062 1.436969757080078 C 0.2034397125244141 0.885650634765625 0.4114704132080078 0.4420604705810547 0.6747093200683594 0.08085060119628906 C 1.36046028137207 -0.8600711822509766 2.232009887695312 -1.000560760498047 2.690489768981934 -1.000560760498047 C 2.796080589294434 -1.000560760498047 2.902780532836914 -0.9932804107666016 3.007630348205566 -0.9789295196533203 C 3.45880126953125 -0.9173908233642578 4.239291191101074 -0.6697673797607422 4.776515960693359 0.2669944763183594 C 4.779788970947266 0.2620201110839844 4.78310489654541 0.2569923400878906 4.786379814147949 0.2520389556884766 C 5.555330276489258 -0.9106101989746094 6.447660446166992 -1.500120162963867 7.438570022583008 -1.500120162963867 Z"/>
              </g>
            </g>
          </g>
        </g>
      </g>
      <g id="그룹_1824" data-name="그룹 1824" transform="translate(-2057 1275)">
        <path id="패스_1918-2" data-name="패스 1918" class="cls-2" d="M20,0A20,20,0,1,1,0,20,20,20,0,0,1,20,0Z" transform="translate(2357 -648)"/>
        <g id="그룹_1382-2" data-name="그룹 1382" transform="translate(2369 -637.999)">
          <g id="그룹_1821-2" data-name="그룹 1821" transform="translate(0 0)">
            <g id="패스_1646-2" data-name="패스 1646" class="cls-24" transform="translate(-0.5 -0.5)">
              <path class="cls-29" d="M 12.17055034637451 21.4998893737793 L 11.17055034637451 21.4998893737793 L 0.5000001788139343 21.4998893737793 L -0.7382398247718811 21.4998893737793 L -0.4775898456573486 20.28939056396484 L 1.824950218200684 9.596019744873047 L 2.13874363899231 8.138699531555176 C 1.349510431289673 7.634972095489502 0.5630077719688416 6.615803241729736 0.60204017162323 4.798159599304199 C 0.6283701658248901 3.563119649887085 0.7649001479148865 2.499769687652588 0.9968901872634888 1.723209738731384 C 1.422510147094727 0.29849973320961 2.1528000831604 -0.0005602721939794719 2.690490245819092 -0.0005602721939794719 C 2.750960111618042 -0.0005602721939794719 2.812090158462524 0.003619727678596973 2.872210264205933 0.01185972802340984 C 3.238240242004395 0.06178972870111465 3.741870164871216 0.2869697213172913 4.058570384979248 1.075689673423767 C 4.188250064849854 1.398639678955078 4.280960083007812 1.782939672470093 4.379120349884033 2.189789772033691 C 4.436537265777588 2.427801609039307 4.497700691223145 2.681330919265747 4.568202018737793 2.926804065704346 C 4.900961875915527 2.074409484863281 5.260677814483643 1.34765350818634 5.620450019836426 0.8036797046661377 C 6.200700283050537 -0.07364027202129364 6.79541015625 -0.5001202821731567 7.438570022583008 -0.5001202821731567 C 7.647150039672852 -0.5001202821731567 7.847200393676758 -0.453490287065506 8.033149719238281 -0.3615202605724335 C 8.364040374755859 -0.198010265827179 8.769700050354004 0.1748697310686111 8.821650505065918 1.021909713745117 C 8.842960357666016 1.369419693946838 8.809869766235352 1.763409733772278 8.774849891662598 2.180539846420288 C 8.732860565185547 2.680549621582031 8.685270309448242 3.247279644012451 8.74159049987793 3.704139709472656 C 8.765409469604492 3.897019386291504 8.777692794799805 4.079985618591309 8.780817985534668 4.252796173095703 C 10.028639793396 4.077623844146729 11.19649600982666 3.9891197681427 12.26605987548828 3.9891197681427 C 13.89976978302002 3.9891197681427 15.31156063079834 4.198599815368652 16.46220016479492 4.611739635467529 C 16.97456932067871 4.795769691467285 17.32582092285156 5.166079521179199 17.45136070251465 5.654499530792236 C 17.76099967956543 6.85923957824707 16.6401195526123 8.198999404907227 14.279709815979 10.87493991851807 C 13.51296997070312 11.74417972564697 12.72012996673584 12.64301013946533 11.98764991760254 13.55696964263916 C 11.77288150787354 13.82463550567627 11.29384708404541 14.53103065490723 10.85629177093506 15.24555110931396 C 10.88925552368164 15.45265769958496 10.95903968811035 15.72360706329346 11.09883975982666 16.05697059631348 C 12.15837001800537 18.58646011352539 12.17055034637451 20.42294883728027 12.17055034637451 20.4998893737793 L 12.17055034637451 21.4998893737793 Z"/>
              <path class="cls-30" d="M 7.438570022583008 0.4998836517333984 C 6.898436546325684 0.4998836517333984 6.063648223876953 1.682485580444336 5.311450004577637 3.795629501342773 C 4.965459823608398 4.767650604248047 5.039830207824707 5.472109794616699 5.24314022064209 5.963799476623535 C 4.825210571289062 6.067339897155762 4.468310356140137 6.163159370422363 4.190629959106445 6.241119384765625 C 4.262180328369141 5.911019325256348 4.380599975585938 5.035629272460938 3.923870086669922 4.074169158935547 C 3.343460083007812 2.851629257202148 3.316780090332031 1.081760406494141 2.736370086669922 1.002590179443359 C 2.155956268310547 0.9229583740234375 1.654359817504883 2.354248046875 1.601810455322266 4.819629669189453 C 1.548870086669922 7.285009384155273 3.289700508117676 7.544049263000488 3.289700508117676 7.544049263000488 L 0.5 20.4998893737793 L 11.17055034637451 20.4998893737793 C 11.17055034637451 20.4998893737793 11.17055034637451 18.81650924682617 10.17665004730225 16.44369888305664 C 9.920390129089355 15.8326301574707 9.84076976776123 15.35311985015869 9.830659866333008 15.00961971282959 C 10.30478000640869 14.21218967437744 10.91510009765625 13.29578971862793 11.20733070373535 12.93158912658691 C 13.98854064941406 9.461299896240234 17.6989803314209 6.118499755859375 16.12426948547363 5.552909851074219 C 13.65790939331055 4.667367935180664 10.24737930297852 4.975129127502441 7.59712028503418 5.456679344177246 C 7.721610069274902 5.12090015411377 7.841660499572754 4.576009750366211 7.749099731445312 3.82649040222168 C 7.583379745483398 2.482139587402344 8.115699768066406 0.7947006225585938 7.589850425720215 0.5348491668701172 C 7.54257869720459 0.5114707946777344 7.491968154907227 0.4998836517333984 7.438570022583008 0.4998836517333984 M 9.228019714355469 16.15663909912109 C 9.309670448303223 15.93372917175293 9.504079818725586 15.56790924072266 9.743770599365234 15.15740966796875 L 9.228019714355469 16.15663909912109 M 7.438570022583008 -1.500120162963867 C 7.802300453186035 -1.500120162963867 8.151519775390625 -1.418609619140625 8.476530075073242 -1.25786018371582 C 8.941060066223145 -1.028310775756836 9.734210014343262 -0.4343795776367188 9.819769859313965 0.9606895446777344 C 9.84553050994873 1.380710601806641 9.809490203857422 1.809860229492188 9.771340370178223 2.264209747314453 C 9.747575759887695 2.547174453735352 9.721830368041992 2.85377311706543 9.716648101806641 3.130403518676758 C 10.61264228820801 3.03645133972168 11.46473789215088 2.989120483398438 12.26583003997803 2.989120483398438 C 14.01539039611816 2.989160537719727 15.54084968566895 3.218429565429688 16.80011940002441 3.670558929443359 C 17.62204933166504 3.965780258178711 18.21235084533691 4.598138809204102 18.41987991333008 5.405570030212402 C 18.87514114379883 7.176899909973145 17.42769050598145 8.817839622497559 15.02964973449707 11.53644943237305 C 14.27058982849121 12.39697933197021 13.48569011688232 13.28680992126465 12.76797008514404 14.18233966827393 C 12.6280460357666 14.35672855377197 12.29159736633301 14.84160232543945 11.92657852172852 15.4182767868042 C 11.95130157470703 15.49380111694336 11.98226928710938 15.57780265808105 12.02103042602539 15.6702299118042 C 13.1382999420166 18.33757019042969 13.17055034637451 20.28644943237305 13.17055034637451 20.4998893737793 C 13.17055034637451 21.60445976257324 12.27511978149414 22.4998893737793 11.17055034637451 22.4998893737793 L 0.5 22.4998893737793 C -0.1043300628662109 22.4998893737793 -0.6762599945068359 22.22662925720215 -1.055959701538086 21.7564697265625 C -1.435649871826172 21.28631973266602 -1.582399368286133 20.66967964172363 -1.455190658569336 20.07888984680176 L 1.029075622558594 8.54155158996582 C 0.2246360778808594 7.805902481079102 -0.4371013641357422 6.61016845703125 -0.3977298736572266 4.776689529418945 C -0.3691196441650391 3.434410095214844 -0.2222690582275391 2.310659408569336 0.03873062133789062 1.436969757080078 C 0.2034397125244141 0.885650634765625 0.4114704132080078 0.4420604705810547 0.6747093200683594 0.08085060119628906 C 1.36046028137207 -0.8600711822509766 2.232009887695312 -1.000560760498047 2.690489768981934 -1.000560760498047 C 2.796080589294434 -1.000560760498047 2.902780532836914 -0.9932804107666016 3.007630348205566 -0.9789295196533203 C 3.45880126953125 -0.9173908233642578 4.239291191101074 -0.6697673797607422 4.776515960693359 0.2669944763183594 C 4.779788970947266 0.2620201110839844 4.78310489654541 0.2569923400878906 4.786379814147949 0.2520389556884766 C 5.555330276489258 -0.9106101989746094 6.447660446166992 -1.500120162963867 7.438570022583008 -1.500120162963867 Z"/>
            </g>
          </g>
        </g>
      </g>
      <g id="그룹_1827" data-name="그룹 1827" transform="translate(0 -605)">
        <rect id="사각형_1584" data-name="사각형 1584" class="cls-16" width="340" height="120" rx="8" transform="translate(10 1352)"/>
        <rect id="dynamic-wang-WS-zNNx9Pvc-unsplash" class="cls-25" width="80" height="80" rx="6" transform="translate(20 1372)"/>
        <text id="구독자_208K명" data-name="구독자 208K명" class="cls-18" transform="translate(110 1398)"><tspan x="0" y="15">구독자 208K명</tspan></text>
        <text id="김희진" class="cls-19" transform="translate(110 1391)"><tspan x="0" y="0">김희진</tspan></text>
        <g id="그룹_1826" data-name="그룹 1826" transform="translate(-2057 2020)">
          <path id="패스_1918-3" data-name="패스 1918" class="cls-2" d="M20,0A20,20,0,1,1,0,20,20,20,0,0,1,20,0Z" transform="translate(2357 -648)"/>
          <g id="그룹_1382-3" data-name="그룹 1382" transform="translate(2369 -637.999)">
            <g id="그룹_1821-3" data-name="그룹 1821" transform="translate(0 0)">
              <g id="패스_1646-3" data-name="패스 1646" class="cls-26" transform="translate(-0.5 -0.5)">
                <path class="cls-29" d="M 12.17055034637451 21.4998893737793 L 11.17055034637451 21.4998893737793 L 0.5000001788139343 21.4998893737793 L -0.7382398247718811 21.4998893737793 L -0.4775898456573486 20.28939056396484 L 1.824950218200684 9.596019744873047 L 2.13874363899231 8.138699531555176 C 1.349510431289673 7.634972095489502 0.5630077719688416 6.615803241729736 0.60204017162323 4.798159599304199 C 0.6283701658248901 3.563119649887085 0.7649001479148865 2.499769687652588 0.9968901872634888 1.723209738731384 C 1.422510147094727 0.29849973320961 2.1528000831604 -0.0005602721939794719 2.690490245819092 -0.0005602721939794719 C 2.750960111618042 -0.0005602721939794719 2.812090158462524 0.003619727678596973 2.872210264205933 0.01185972802340984 C 3.238240242004395 0.06178972870111465 3.741870164871216 0.2869697213172913 4.058570384979248 1.075689673423767 C 4.188250064849854 1.398639678955078 4.280960083007812 1.782939672470093 4.379120349884033 2.189789772033691 C 4.436537265777588 2.427801609039307 4.497700691223145 2.681330919265747 4.568202018737793 2.926804065704346 C 4.900961875915527 2.074409484863281 5.260677814483643 1.34765350818634 5.620450019836426 0.8036797046661377 C 6.200700283050537 -0.07364027202129364 6.79541015625 -0.5001202821731567 7.438570022583008 -0.5001202821731567 C 7.647150039672852 -0.5001202821731567 7.847200393676758 -0.453490287065506 8.033149719238281 -0.3615202605724335 C 8.364040374755859 -0.198010265827179 8.769700050354004 0.1748697310686111 8.821650505065918 1.021909713745117 C 8.842960357666016 1.369419693946838 8.809869766235352 1.763409733772278 8.774849891662598 2.180539846420288 C 8.732860565185547 2.680549621582031 8.685270309448242 3.247279644012451 8.74159049987793 3.704139709472656 C 8.765409469604492 3.897019386291504 8.777692794799805 4.079985618591309 8.780817985534668 4.252796173095703 C 10.028639793396 4.077623844146729 11.19649600982666 3.9891197681427 12.26605987548828 3.9891197681427 C 13.89976978302002 3.9891197681427 15.31156063079834 4.198599815368652 16.46220016479492 4.611739635467529 C 16.97456932067871 4.795769691467285 17.32582092285156 5.166079521179199 17.45136070251465 5.654499530792236 C 17.76099967956543 6.85923957824707 16.6401195526123 8.198999404907227 14.279709815979 10.87493991851807 C 13.51296997070312 11.74417972564697 12.72012996673584 12.64301013946533 11.98764991760254 13.55696964263916 C 11.77288150787354 13.82463550567627 11.29384708404541 14.53103065490723 10.85629177093506 15.24555110931396 C 10.88925552368164 15.45265769958496 10.95903968811035 15.72360706329346 11.09883975982666 16.05697059631348 C 12.15837001800537 18.58646011352539 12.17055034637451 20.42294883728027 12.17055034637451 20.4998893737793 L 12.17055034637451 21.4998893737793 Z"/>
                <path class="cls-30" d="M 7.438570022583008 0.4998836517333984 C 6.898436546325684 0.4998836517333984 6.063648223876953 1.682485580444336 5.311450004577637 3.795629501342773 C 4.965459823608398 4.767650604248047 5.039830207824707 5.472109794616699 5.24314022064209 5.963799476623535 C 4.825210571289062 6.067339897155762 4.468310356140137 6.163159370422363 4.190629959106445 6.241119384765625 C 4.262180328369141 5.911019325256348 4.380599975585938 5.035629272460938 3.923870086669922 4.074169158935547 C 3.343460083007812 2.851629257202148 3.316780090332031 1.081760406494141 2.736370086669922 1.002590179443359 C 2.155956268310547 0.9229583740234375 1.654359817504883 2.354248046875 1.601810455322266 4.819629669189453 C 1.548870086669922 7.285009384155273 3.289700508117676 7.544049263000488 3.289700508117676 7.544049263000488 L 0.5 20.4998893737793 L 11.17055034637451 20.4998893737793 C 11.17055034637451 20.4998893737793 11.17055034637451 18.81650924682617 10.17665004730225 16.44369888305664 C 9.920390129089355 15.8326301574707 9.84076976776123 15.35311985015869 9.830659866333008 15.00961971282959 C 10.30478000640869 14.21218967437744 10.91510009765625 13.29578971862793 11.20733070373535 12.93158912658691 C 13.98854064941406 9.461299896240234 17.6989803314209 6.118499755859375 16.12426948547363 5.552909851074219 C 13.65790939331055 4.667367935180664 10.24737930297852 4.975129127502441 7.59712028503418 5.456679344177246 C 7.721610069274902 5.12090015411377 7.841660499572754 4.576009750366211 7.749099731445312 3.82649040222168 C 7.583379745483398 2.482139587402344 8.115699768066406 0.7947006225585938 7.589850425720215 0.5348491668701172 C 7.54257869720459 0.5114707946777344 7.491968154907227 0.4998836517333984 7.438570022583008 0.4998836517333984 M 9.228019714355469 16.15663909912109 C 9.309670448303223 15.93372917175293 9.504079818725586 15.56790924072266 9.743770599365234 15.15740966796875 L 9.228019714355469 16.15663909912109 M 7.438570022583008 -1.500120162963867 C 7.802300453186035 -1.500120162963867 8.151519775390625 -1.418609619140625 8.476530075073242 -1.25786018371582 C 8.941060066223145 -1.028310775756836 9.734210014343262 -0.4343795776367188 9.819769859313965 0.9606895446777344 C 9.84553050994873 1.380710601806641 9.809490203857422 1.809860229492188 9.771340370178223 2.264209747314453 C 9.747575759887695 2.547174453735352 9.721830368041992 2.85377311706543 9.716648101806641 3.130403518676758 C 10.61264228820801 3.03645133972168 11.46473789215088 2.989120483398438 12.26583003997803 2.989120483398438 C 14.01539039611816 2.989160537719727 15.54084968566895 3.218429565429688 16.80011940002441 3.670558929443359 C 17.62204933166504 3.965780258178711 18.21235084533691 4.598138809204102 18.41987991333008 5.405570030212402 C 18.87514114379883 7.176899909973145 17.42769050598145 8.817839622497559 15.02964973449707 11.53644943237305 C 14.27058982849121 12.39697933197021 13.48569011688232 13.28680992126465 12.76797008514404 14.18233966827393 C 12.6280460357666 14.35672855377197 12.29159736633301 14.84160232543945 11.92657852172852 15.4182767868042 C 11.95130157470703 15.49380111694336 11.98226928710938 15.57780265808105 12.02103042602539 15.6702299118042 C 13.1382999420166 18.33757019042969 13.17055034637451 20.28644943237305 13.17055034637451 20.4998893737793 C 13.17055034637451 21.60445976257324 12.27511978149414 22.4998893737793 11.17055034637451 22.4998893737793 L 0.5 22.4998893737793 C -0.1043300628662109 22.4998893737793 -0.6762599945068359 22.22662925720215 -1.055959701538086 21.7564697265625 C -1.435649871826172 21.28631973266602 -1.582399368286133 20.66967964172363 -1.455190658569336 20.07888984680176 L 1.029075622558594 8.54155158996582 C 0.2246360778808594 7.805902481079102 -0.4371013641357422 6.61016845703125 -0.3977298736572266 4.776689529418945 C -0.3691196441650391 3.434410095214844 -0.2222690582275391 2.310659408569336 0.03873062133789062 1.436969757080078 C 0.2034397125244141 0.885650634765625 0.4114704132080078 0.4420604705810547 0.6747093200683594 0.08085060119628906 C 1.36046028137207 -0.8600711822509766 2.232009887695312 -1.000560760498047 2.690489768981934 -1.000560760498047 C 2.796080589294434 -1.000560760498047 2.902780532836914 -0.9932804107666016 3.007630348205566 -0.9789295196533203 C 3.45880126953125 -0.9173908233642578 4.239291191101074 -0.6697673797607422 4.776515960693359 0.2669944763183594 C 4.779788970947266 0.2620201110839844 4.78310489654541 0.2569923400878906 4.786379814147949 0.2520389556884766 C 5.555330276489258 -0.9106101989746094 6.447660446166992 -1.500120162963867 7.438570022583008 -1.500120162963867 Z"/>
              </g>
            </g>
          </g>
        </g>
        <g id="그룹_1825" data-name="그룹 1825" transform="translate(0 270)">
          <rect id="사각형_1581-3" data-name="사각형 1581" class="cls-2" width="44" height="26" rx="13" transform="translate(224 1156)"/>
          <rect id="사각형_1582-3" data-name="사각형 1582" class="cls-2" width="56" height="26" rx="13" transform="translate(272 1156)"/>
          <text id="사진" class="cls-21" transform="translate(234 1174)"><tspan x="0" y="0">사진</tspan></text>
          <text id="심플한" class="cls-21" transform="translate(282 1174)"><tspan x="0" y="0">심플한</tspan></text>
        </g>
      </g>
      <g id="그룹_1835" data-name="그룹 1835" transform="translate(0 -465)">
        <rect id="사각형_1584-2" data-name="사각형 1584" class="cls-16" width="340" height="120" rx="8" transform="translate(10 1352)"/>
        <rect id="alina-bordunova-HgN5CqM6qkQ-unsplash-3" data-name="alina-bordunova-HgN5CqM6qkQ-unsplash" class="cls-5" width="80" height="80" rx="6" transform="translate(20 1372)"/>
        <text id="구독자_417K명" data-name="구독자 417K명" class="cls-18" transform="translate(110 1398)"><tspan x="0" y="15">구독자 417K명</tspan></text>
        <text id="KAZAN" class="cls-19" transform="translate(110 1391)"><tspan x="0" y="0">KAZAN</tspan></text>
        <g id="그룹_1826-2" data-name="그룹 1826" transform="translate(-2057 2020)">
          <path id="패스_1918-4" data-name="패스 1918" class="cls-2" d="M20,0A20,20,0,1,1,0,20,20,20,0,0,1,20,0Z" transform="translate(2357 -648)"/>
          <g id="그룹_1382-4" data-name="그룹 1382" transform="translate(2369 -637.999)">
            <g id="그룹_1821-4" data-name="그룹 1821" transform="translate(0 0)">
              <g id="패스_1646-4" data-name="패스 1646" class="cls-27" transform="translate(-0.5 -0.5)">
                <path class="cls-29" d="M 12.17055034637451 21.4998893737793 L 11.17055034637451 21.4998893737793 L 0.5000001788139343 21.4998893737793 L -0.7382398247718811 21.4998893737793 L -0.4775898456573486 20.28939056396484 L 1.824950218200684 9.596019744873047 L 2.13874363899231 8.138699531555176 C 1.349510431289673 7.634972095489502 0.5630077719688416 6.615803241729736 0.60204017162323 4.798159599304199 C 0.6283701658248901 3.563119649887085 0.7649001479148865 2.499769687652588 0.9968901872634888 1.723209738731384 C 1.422510147094727 0.29849973320961 2.1528000831604 -0.0005602721939794719 2.690490245819092 -0.0005602721939794719 C 2.750960111618042 -0.0005602721939794719 2.812090158462524 0.003619727678596973 2.872210264205933 0.01185972802340984 C 3.238240242004395 0.06178972870111465 3.741870164871216 0.2869697213172913 4.058570384979248 1.075689673423767 C 4.188250064849854 1.398639678955078 4.280960083007812 1.782939672470093 4.379120349884033 2.189789772033691 C 4.436537265777588 2.427801609039307 4.497700691223145 2.681330919265747 4.568202018737793 2.926804065704346 C 4.900961875915527 2.074409484863281 5.260677814483643 1.34765350818634 5.620450019836426 0.8036797046661377 C 6.200700283050537 -0.07364027202129364 6.79541015625 -0.5001202821731567 7.438570022583008 -0.5001202821731567 C 7.647150039672852 -0.5001202821731567 7.847200393676758 -0.453490287065506 8.033149719238281 -0.3615202605724335 C 8.364040374755859 -0.198010265827179 8.769700050354004 0.1748697310686111 8.821650505065918 1.021909713745117 C 8.842960357666016 1.369419693946838 8.809869766235352 1.763409733772278 8.774849891662598 2.180539846420288 C 8.732860565185547 2.680549621582031 8.685270309448242 3.247279644012451 8.74159049987793 3.704139709472656 C 8.765409469604492 3.897019386291504 8.777692794799805 4.079985618591309 8.780817985534668 4.252796173095703 C 10.028639793396 4.077623844146729 11.19649600982666 3.9891197681427 12.26605987548828 3.9891197681427 C 13.89976978302002 3.9891197681427 15.31156063079834 4.198599815368652 16.46220016479492 4.611739635467529 C 16.97456932067871 4.795769691467285 17.32582092285156 5.166079521179199 17.45136070251465 5.654499530792236 C 17.76099967956543 6.85923957824707 16.6401195526123 8.198999404907227 14.279709815979 10.87493991851807 C 13.51296997070312 11.74417972564697 12.72012996673584 12.64301013946533 11.98764991760254 13.55696964263916 C 11.77288150787354 13.82463550567627 11.29384708404541 14.53103065490723 10.85629177093506 15.24555110931396 C 10.88925552368164 15.45265769958496 10.95903968811035 15.72360706329346 11.09883975982666 16.05697059631348 C 12.15837001800537 18.58646011352539 12.17055034637451 20.42294883728027 12.17055034637451 20.4998893737793 L 12.17055034637451 21.4998893737793 Z"/>
                <path class="cls-30" d="M 7.438570022583008 0.4998836517333984 C 6.898436546325684 0.4998836517333984 6.063648223876953 1.682485580444336 5.311450004577637 3.795629501342773 C 4.965459823608398 4.767650604248047 5.039830207824707 5.472109794616699 5.24314022064209 5.963799476623535 C 4.825210571289062 6.067339897155762 4.468310356140137 6.163159370422363 4.190629959106445 6.241119384765625 C 4.262180328369141 5.911019325256348 4.380599975585938 5.035629272460938 3.923870086669922 4.074169158935547 C 3.343460083007812 2.851629257202148 3.316780090332031 1.081760406494141 2.736370086669922 1.002590179443359 C 2.155956268310547 0.9229583740234375 1.654359817504883 2.354248046875 1.601810455322266 4.819629669189453 C 1.548870086669922 7.285009384155273 3.289700508117676 7.544049263000488 3.289700508117676 7.544049263000488 L 0.5 20.4998893737793 L 11.17055034637451 20.4998893737793 C 11.17055034637451 20.4998893737793 11.17055034637451 18.81650924682617 10.17665004730225 16.44369888305664 C 9.920390129089355 15.8326301574707 9.84076976776123 15.35311985015869 9.830659866333008 15.00961971282959 C 10.30478000640869 14.21218967437744 10.91510009765625 13.29578971862793 11.20733070373535 12.93158912658691 C 13.98854064941406 9.461299896240234 17.6989803314209 6.118499755859375 16.12426948547363 5.552909851074219 C 13.65790939331055 4.667367935180664 10.24737930297852 4.975129127502441 7.59712028503418 5.456679344177246 C 7.721610069274902 5.12090015411377 7.841660499572754 4.576009750366211 7.749099731445312 3.82649040222168 C 7.583379745483398 2.482139587402344 8.115699768066406 0.7947006225585938 7.589850425720215 0.5348491668701172 C 7.54257869720459 0.5114707946777344 7.491968154907227 0.4998836517333984 7.438570022583008 0.4998836517333984 M 9.228019714355469 16.15663909912109 C 9.309670448303223 15.93372917175293 9.504079818725586 15.56790924072266 9.743770599365234 15.15740966796875 L 9.228019714355469 16.15663909912109 M 7.438570022583008 -1.500120162963867 C 7.802300453186035 -1.500120162963867 8.151519775390625 -1.418609619140625 8.476530075073242 -1.25786018371582 C 8.941060066223145 -1.028310775756836 9.734210014343262 -0.4343795776367188 9.819769859313965 0.9606895446777344 C 9.84553050994873 1.380710601806641 9.809490203857422 1.809860229492188 9.771340370178223 2.264209747314453 C 9.747575759887695 2.547174453735352 9.721830368041992 2.85377311706543 9.716648101806641 3.130403518676758 C 10.61264228820801 3.03645133972168 11.46473789215088 2.989120483398438 12.26583003997803 2.989120483398438 C 14.01539039611816 2.989160537719727 15.54084968566895 3.218429565429688 16.80011940002441 3.670558929443359 C 17.62204933166504 3.965780258178711 18.21235084533691 4.598138809204102 18.41987991333008 5.405570030212402 C 18.87514114379883 7.176899909973145 17.42769050598145 8.817839622497559 15.02964973449707 11.53644943237305 C 14.27058982849121 12.39697933197021 13.48569011688232 13.28680992126465 12.76797008514404 14.18233966827393 C 12.6280460357666 14.35672855377197 12.29159736633301 14.84160232543945 11.92657852172852 15.4182767868042 C 11.95130157470703 15.49380111694336 11.98226928710938 15.57780265808105 12.02103042602539 15.6702299118042 C 13.1382999420166 18.33757019042969 13.17055034637451 20.28644943237305 13.17055034637451 20.4998893737793 C 13.17055034637451 21.60445976257324 12.27511978149414 22.4998893737793 11.17055034637451 22.4998893737793 L 0.5 22.4998893737793 C -0.1043300628662109 22.4998893737793 -0.6762599945068359 22.22662925720215 -1.055959701538086 21.7564697265625 C -1.435649871826172 21.28631973266602 -1.582399368286133 20.66967964172363 -1.455190658569336 20.07888984680176 L 1.029075622558594 8.54155158996582 C 0.2246360778808594 7.805902481079102 -0.4371013641357422 6.61016845703125 -0.3977298736572266 4.776689529418945 C -0.3691196441650391 3.434410095214844 -0.2222690582275391 2.310659408569336 0.03873062133789062 1.436969757080078 C 0.2034397125244141 0.885650634765625 0.4114704132080078 0.4420604705810547 0.6747093200683594 0.08085060119628906 C 1.36046028137207 -0.8600711822509766 2.232009887695312 -1.000560760498047 2.690489768981934 -1.000560760498047 C 2.796080589294434 -1.000560760498047 2.902780532836914 -0.9932804107666016 3.007630348205566 -0.9789295196533203 C 3.45880126953125 -0.9173908233642578 4.239291191101074 -0.6697673797607422 4.776515960693359 0.2669944763183594 C 4.779788970947266 0.2620201110839844 4.78310489654541 0.2569923400878906 4.786379814147949 0.2520389556884766 C 5.555330276489258 -0.9106101989746094 6.447660446166992 -1.500120162963867 7.438570022583008 -1.500120162963867 Z"/>
              </g>
            </g>
          </g>
        </g>
        <g id="그룹_1825-2" data-name="그룹 1825" transform="translate(0 270)">
          <rect id="사각형_1582-4" data-name="사각형 1582" class="cls-2" width="68" height="26" rx="13" transform="translate(272 1156)"/>
          <g id="그룹_1837" data-name="그룹 1837" transform="translate(-12)">
            <rect id="사각형_1581-4" data-name="사각형 1581" class="cls-2" width="56" height="26" rx="13" transform="translate(224 1156)"/>
            <text id="인물화-2" data-name="인물화" class="cls-21" transform="translate(234 1174)"><tspan x="0" y="0">인물화</tspan></text>
          </g>
          <text id="사실적인" class="cls-21" transform="translate(282 1174)"><tspan x="0" y="0">사실적인</tspan></text>
        </g>
      </g>
      <rect id="_8machine-_-9SS3n6hhMBY-unsplash" data-name="8machine-_-9SS3n6hhMBY-unsplash" class="cls-28" width="80" height="80" rx="6" transform="translate(20 627)"/>
    </g>
  </g>
</svg>
